<svg width="80" height="80" viewBox="0 0 80 80" fill="none" xmlns="http://www.w3.org/2000/svg">
<path d="M31.005 25.2L26.005 28L28.805 23L26.005 18L31.005 20.8L36.005 18L33.205 23L36.005 28L31.005 25.2ZM55.005 44.8L60.005 42L57.205 47L60.005 52L55.005 49.2L50.005 52L52.805 47L50.005 42L55.005 44.8ZM60.005 18L57.205 23L60.005 28L55.005 25.2L50.005 28L52.805 23L50.005 18L55.005 20.8L60.005 18ZM42.685 39.56L47.565 34.68L43.325 30.44L38.445 35.32L42.685 39.56ZM44.745 28.58L49.425 33.26C50.205 34 50.205 35.3 49.425 36.08L26.085 59.42C25.305 60.2 24.005 60.2 23.265 59.42L18.585 54.74C17.805 54 17.805 52.7 18.585 51.92L41.925 28.58C42.705 27.8 44.005 27.8 44.745 28.58Z" fill="#7985CB"/>
</svg>
