<svg width="16" height="16" viewBox="0 0 16 16" fill="none" xmlns="http://www.w3.org/2000/svg">
<path fill-rule="evenodd" clip-rule="evenodd" d="M14 3H2C1.44772 3 1 3.44772 1 4V12C1 12.5523 1.44772 13 2 13H14C14.5523 13 15 12.5523 15 12V4C15 3.44772 14.5523 3 14 3ZM2 2C0.895431 2 0 2.89543 0 4V12C0 13.1046 0.895431 14 2 14H14C15.1046 14 16 13.1046 16 12V4C16 2.89543 15.1046 2 14 2H2Z" fill="#45494D"/>
<path d="M7.6912 8.89308C7.87251 9.03553 8.12772 9.03553 8.30903 8.89308L14.947 3.67752C14.8308 3.336 14.5349 3.07754 14.1721 3.01465L8.00011 7.86404L1.82816 3.01465C1.46529 3.07754 1.16947 3.336 1.05322 3.67752L7.6912 8.89308Z" fill="#45494D"/>
</svg>
