<svg width="80" height="80" viewBox="0 0 80 80" fill="none" xmlns="http://www.w3.org/2000/svg">
<path d="M56 38H62V42H56V38ZM18 38H24V42H18V38ZM42 18V24H38V18H42ZM25.84 23L30.1 27.28L27.26 30.1L23 25.86L25.84 23ZM49.9 27.26L54.14 23L57 25.86L52.74 30.1L49.9 27.26ZM40 28C43.1826 28 46.2348 29.2643 48.4853 31.5147C50.7357 33.7652 52 36.8174 52 40C52 44.44 49.58 48.32 46 50.4V54C46 54.5304 45.7893 55.0391 45.4142 55.4142C45.0391 55.7893 44.5304 56 44 56H36C35.4696 56 34.9609 55.7893 34.5858 55.4142C34.2107 55.0391 34 54.5304 34 54V50.4C30.42 48.32 28 44.44 28 40C28 36.8174 29.2643 33.7652 31.5147 31.5147C33.7652 29.2643 36.8174 28 40 28ZM44 58V60C44 60.5304 43.7893 61.0391 43.4142 61.4142C43.0391 61.7893 42.5304 62 42 62H38C37.4696 62 36.9609 61.7893 36.5858 61.4142C36.2107 61.0391 36 60.5304 36 60V58H44ZM38 52H42V47.74C45.46 46.86 48 43.72 48 40C48 37.8783 47.1571 35.8434 45.6569 34.3431C44.1566 32.8429 42.1217 32 40 32C37.8783 32 35.8434 32.8429 34.3431 34.3431C32.8429 35.8434 32 37.8783 32 40C32 43.72 34.54 46.86 38 47.74V52Z" fill="#65B168"/>
</svg>
