<svg width="33" height="20" viewBox="0 0 33 20" fill="none" xmlns="http://www.w3.org/2000/svg">
<g clip-path="url(#clip0_1246:255)">
<path d="M9.93902 20C15.4282 20 19.878 15.5228 19.878 10C19.878 4.47715 15.4282 0 9.93902 0C4.44985 0 0 4.47715 0 10C0 15.5228 4.44985 20 9.93902 20Z" fill="#EE0005"/>
<path d="M22.2875 20C27.7767 20 32.2266 15.5228 32.2266 10C32.2266 4.47715 27.7767 0 22.2875 0C16.7984 0 12.3485 4.47715 12.3485 10C12.3485 15.5228 16.7984 20 22.2875 20Z" fill="#F9A000"/>
<path d="M12.3485 10.0002C12.3485 13.1754 13.8195 16.005 16.1129 17.8366C18.4064 16.005 19.8773 13.1754 19.8773 10.0002C19.8773 6.82496 18.4064 3.99531 16.1129 2.1637C13.8202 3.99607 12.3485 6.82496 12.3485 10.0002Z" fill="#FF6300"/>
</g>
<defs>
<clipPath id="clip0_1246:255">
<rect width="32.2265" height="20" fill="white"/>
</clipPath>
</defs>
</svg>
