<svg width="80" height="80" viewBox="0 0 80 80" fill="none" xmlns="http://www.w3.org/2000/svg">
<path d="M51 40C50.2044 40 49.4413 39.6839 48.8787 39.1213C48.3161 38.5587 48 37.7956 48 37C48 36.2044 48.3161 35.4413 48.8787 34.8787C49.4413 34.3161 50.2044 34 51 34C51.7956 34 52.5587 34.3161 53.1213 34.8787C53.6839 35.4413 54 36.2044 54 37C54 37.7956 53.6839 38.5587 53.1213 39.1213C52.5587 39.6839 51.7956 40 51 40ZM45 32C44.2044 32 43.4413 31.6839 42.8787 31.1213C42.3161 30.5587 42 29.7956 42 29C42 28.2044 42.3161 27.4413 42.8787 26.8787C43.4413 26.3161 44.2044 26 45 26C45.7956 26 46.5587 26.3161 47.1213 26.8787C47.6839 27.4413 48 28.2044 48 29C48 29.7956 47.6839 30.5587 47.1213 31.1213C46.5587 31.6839 45.7956 32 45 32ZM35 32C34.2044 32 33.4413 31.6839 32.8787 31.1213C32.3161 30.5587 32 29.7956 32 29C32 28.2044 32.3161 27.4413 32.8787 26.8787C33.4413 26.3161 34.2044 26 35 26C35.7956 26 36.5587 26.3161 37.1213 26.8787C37.6839 27.4413 38 28.2044 38 29C38 29.7956 37.6839 30.5587 37.1213 31.1213C36.5587 31.6839 35.7956 32 35 32ZM29 40C28.2044 40 27.4413 39.6839 26.8787 39.1213C26.3161 38.5587 26 37.7956 26 37C26 36.2044 26.3161 35.4413 26.8787 34.8787C27.4413 34.3161 28.2044 34 29 34C29.7956 34 30.5587 34.3161 31.1213 34.8787C31.6839 35.4413 32 36.2044 32 37C32 37.7956 31.6839 38.5587 31.1213 39.1213C30.5587 39.6839 29.7956 40 29 40ZM40 22C35.2261 22 30.6477 23.8964 27.2721 27.2721C23.8964 30.6477 22 35.2261 22 40C22 44.7739 23.8964 49.3523 27.2721 52.7279C30.6477 56.1036 35.2261 58 40 58C40.7956 58 41.5587 57.6839 42.1213 57.1213C42.6839 56.5587 43 55.7957 43 55C43 54.22 42.7 53.52 42.22 53C41.76 52.46 41.46 51.76 41.46 51C41.46 50.2044 41.7761 49.4413 42.3387 48.8787C42.9013 48.3161 43.6644 48 44.46 48H48C50.6522 48 53.1957 46.9464 55.0711 45.0711C56.9464 43.1957 58 40.6522 58 38C58 29.16 49.94 22 40 22Z" fill="#EF6292"/>
</svg>
