<svg width="122" height="32" viewBox="0 0 122 32" fill="none" xmlns="http://www.w3.org/2000/svg">
<path d="M8.00004 19.3106L11.42 21.3359L10.5124 17.5188L13.5339 14.9506L9.55505 14.614L8.00004 11.0195L6.44503 14.614L2.46619 14.9506L5.48214 17.5188L4.58012 21.3359L8.00004 19.3106Z" fill="#FB8200"/>
<path d="M22 19.3106L25.42 21.3359L24.5124 17.5188L27.5339 14.9506L23.5551 14.614L22 11.0195L20.445 14.614L16.4662 14.9506L19.4821 17.5188L18.5801 21.3359L22 19.3106Z" fill="#FB8200"/>
<path d="M36 19.3106L39.42 21.3359L38.5124 17.5188L41.5339 14.9506L37.5551 14.614L36 11.0195L34.445 14.614L30.4662 14.9506L33.4821 17.5188L32.5801 21.3359L36 19.3106Z" fill="#FB8200"/>
<path d="M50 19.3106L53.42 21.3359L52.5124 17.5188L55.5339 14.9506L51.5551 14.614L50 11.0195L48.445 14.614L44.4662 14.9506L47.4821 17.5188L46.5801 21.3359L50 19.3106Z" fill="#FB8200"/>
<path d="M64 18.2718V12.8544L64.9463 15.2019L67.3702 15.4175L65.5329 17.1009L66.0808 19.5941L64 18.2718ZM69.5339 14.6835L65.5551 14.3282L64 10.4661L62.445 14.3282L58.4662 14.6835L61.4821 17.4388L60.5801 21.5338L64 19.3611L67.42 21.5338L66.5124 17.4388L69.5339 14.6835Z" fill="#FB8200"/>
<path d="M86.3643 17.4521H87.6016V18.7852H86.3643V21H84.7031V18.7852H80.4033L80.3555 17.7734L84.6484 11.0469H86.3643V17.4521ZM82.0986 17.4521H84.7031V13.2959L84.5801 13.5146L82.0986 17.4521ZM89.9438 19.25C90.2536 19.25 90.4929 19.3389 90.6615 19.5166C90.8301 19.6898 90.9145 19.9085 90.9145 20.1729C90.9145 20.4326 90.8301 20.6491 90.6615 20.8223C90.4929 20.9909 90.2536 21.0752 89.9438 21.0752C89.6475 21.0752 89.4128 20.9909 89.2396 20.8223C89.0665 20.6536 88.9799 20.4372 88.9799 20.1729C88.9799 19.9085 89.0642 19.6898 89.2328 19.5166C89.4014 19.3389 89.6384 19.25 89.9438 19.25ZM99.2996 16.8096C99.2996 18.2406 99.0307 19.3206 98.493 20.0498C97.9598 20.7744 97.1463 21.1367 96.0525 21.1367C94.977 21.1367 94.1658 20.7835 93.6189 20.0771C93.0766 19.3662 92.7986 18.3158 92.785 16.9258V15.2031C92.785 13.7721 93.0516 12.6989 93.5848 11.9834C94.1225 11.2679 94.9406 10.9102 96.0389 10.9102C97.1281 10.9102 97.9393 11.2588 98.4725 11.9561C99.0102 12.6533 99.2859 13.6969 99.2996 15.0869V16.8096ZM97.6385 14.9502C97.6385 14.016 97.5109 13.3324 97.2557 12.8994C97.0005 12.4619 96.5949 12.2432 96.0389 12.2432C95.4965 12.2432 95.0978 12.4505 94.8426 12.8652C94.5874 13.2754 94.4529 13.918 94.4393 14.793V17.0488C94.4393 17.9785 94.5691 18.6712 94.8289 19.127C95.0887 19.5827 95.4965 19.8105 96.0525 19.8105C96.5857 19.8105 96.9799 19.6009 97.2352 19.1816C97.4904 18.7578 97.6248 18.097 97.6385 17.1992V14.9502ZM101.314 16.0645L101.854 11.0469H107.199V12.4824H103.235L102.961 14.8613C103.421 14.597 103.941 14.4648 104.52 14.4648C105.468 14.4648 106.204 14.7679 106.728 15.374C107.256 15.9801 107.521 16.7959 107.521 17.8213C107.521 18.833 107.229 19.6396 106.646 20.2412C106.062 20.8382 105.263 21.1367 104.246 21.1367C103.335 21.1367 102.578 20.8792 101.977 20.3643C101.38 19.8447 101.056 19.1611 101.006 18.3135H102.612C102.676 18.7965 102.849 19.168 103.132 19.4277C103.415 19.6829 103.784 19.8105 104.239 19.8105C104.75 19.8105 105.146 19.6283 105.429 19.2637C105.716 18.8991 105.86 18.4023 105.86 17.7734C105.86 17.1673 105.702 16.6888 105.388 16.3379C105.073 15.9824 104.64 15.8047 104.089 15.8047C103.788 15.8047 103.533 15.8457 103.323 15.9277C103.114 16.0052 102.886 16.1602 102.64 16.3926L101.314 16.0645Z" fill="#5E6366"/>
</svg>
