<svg width="42" height="42" viewBox="0 0 42 42" fill="none" xmlns="http://www.w3.org/2000/svg">
<path d="M21 33C27.6274 33 33 27.6274 33 21C33 14.3726 27.6274 9 21 9C14.3726 9 9 14.3726 9 21C9 27.6274 14.3726 33 21 33Z" fill="#55ACEE"/>
<path d="M25.9003 18.7494C25.5575 18.9014 25.1887 19.0042 24.8019 19.0501C25.1968 18.8135 25.4999 18.4392 25.6429 17.9924C25.2734 18.2116 24.864 18.3706 24.4286 18.4563C24.0798 18.0848 23.5828 17.8527 23.0325 17.8527C21.9766 17.8527 21.1203 18.709 21.1203 19.7649C21.1203 19.9147 21.1372 20.0606 21.17 20.2007C19.5808 20.121 18.1717 19.3597 17.2286 18.2025C17.064 18.4848 16.9696 18.8135 16.9696 19.1639C16.9696 19.8272 17.3074 20.4127 17.8202 20.7556C17.5069 20.7457 17.2119 20.6597 16.9542 20.5161C16.954 20.5242 16.954 20.5324 16.954 20.5404C16.954 21.4669 17.6134 22.2397 18.488 22.4152C18.3278 22.4591 18.1585 22.4824 17.9844 22.4824C17.8609 22.4824 17.7412 22.4705 17.6246 22.4483C17.8679 23.2078 18.5739 23.7607 19.4109 23.7762C18.7563 24.2892 17.9319 24.5948 17.0357 24.5948C16.8817 24.5948 16.7291 24.5858 16.5798 24.568C17.4256 25.1108 18.431 25.4272 19.5108 25.4272C23.0281 25.4272 24.9515 22.5135 24.9515 19.9863C24.9515 19.9035 24.9497 19.8209 24.946 19.7391C25.3199 19.4695 25.644 19.1328 25.9003 18.7494Z" fill="#F1F2F2"/>
<rect x="0.5" y="0.5" width="41" height="41" rx="13.5" stroke="#B4B4BB"/>
</svg>
