<svg width="88" height="32" viewBox="0 0 88 32" fill="none" xmlns="http://www.w3.org/2000/svg">
<rect x="0.5" y="0.5" width="87" height="31" rx="3.5" fill="white" stroke="#9DC2FF"/>
<path d="M35.4557 21H37.0069L39.1496 13.3736H39.2292L41.3719 21H42.9181L45.7469 10.8182H44.1262L42.1475 18.7081H42.053L39.9898 10.8182H38.389L36.3258 18.7031H36.2313L34.2476 10.8182H32.6319L35.4557 21ZM48.7507 21.169C50.0135 21.169 50.7244 20.5277 51.0078 19.956H51.0675V21H52.5192V15.929C52.5192 13.7067 50.7692 13.2642 49.5561 13.2642C48.174 13.2642 46.9013 13.821 46.4041 15.2131L47.8011 15.5312C48.0199 14.9893 48.5767 14.4673 49.576 14.4673C50.5355 14.4673 51.0277 14.9695 51.0277 15.8345V15.8693C51.0277 16.4112 50.4709 16.4013 49.0987 16.5604C47.652 16.7294 46.1704 17.1072 46.1704 18.8423C46.1704 20.3438 47.299 21.169 48.7507 21.169ZM49.0739 19.9759C48.2337 19.9759 47.6271 19.598 47.6271 18.8622C47.6271 18.0668 48.3331 17.7834 49.1932 17.669C49.6754 17.6044 50.8189 17.4751 51.0327 17.2614V18.2457C51.0327 19.1506 50.3118 19.9759 49.0739 19.9759ZM58.3157 13.3636H56.7497V11.5341H55.2632V13.3636H54.1446V14.5568H55.2632V19.0661C55.2582 20.4531 56.3172 21.1243 57.4905 21.0994C57.9628 21.0945 58.2809 21.005 58.4549 20.9403L58.1865 19.7124C58.087 19.7322 57.9031 19.777 57.6645 19.777C57.1822 19.777 56.7497 19.6179 56.7497 18.7578V14.5568H58.3157V13.3636ZM63.3467 21.1541C65.1514 21.1541 66.3197 20.0703 66.4838 18.5838H65.037C64.8481 19.4091 64.2068 19.8963 63.3566 19.8963C62.0988 19.8963 61.2884 18.8473 61.2884 17.1818C61.2884 15.5462 62.1137 14.517 63.3566 14.517C64.3012 14.517 64.8779 15.1136 65.037 15.8295H66.4838C66.3247 14.2884 65.0668 13.2642 63.3318 13.2642C61.1791 13.2642 59.787 14.8849 59.787 17.2166C59.787 19.5185 61.1293 21.1541 63.3467 21.1541ZM69.8119 16.4659C69.8119 15.2479 70.5825 14.5518 71.6415 14.5518C72.6656 14.5518 73.2771 15.2031 73.2771 16.3217V21H74.7636V16.1428C74.7636 14.2386 73.7196 13.2642 72.1486 13.2642C70.9604 13.2642 70.2445 13.7812 69.8865 14.6065H69.792V10.8182H68.3254V21H69.8119V16.4659Z" fill="#2264D1"/>
<path d="M18.07 20.585L18 20.655L17.923 20.585C14.598 17.568 12.4 15.573 12.4 13.55C12.4 12.15 13.45 11.1 14.85 11.1C15.928 11.1 16.978 11.8 17.349 12.752H18.651C19.022 11.8 20.072 11.1 21.15 11.1C22.55 11.1 23.6 12.15 23.6 13.55C23.6 15.573 21.402 17.568 18.07 20.585ZM21.15 9.7C19.932 9.7 18.763 10.267 18 11.156C17.237 10.267 16.068 9.7 14.85 9.7C12.694 9.7 11 11.387 11 13.55C11 16.189 13.38 18.352 16.985 21.621L18 22.545L19.015 21.621C22.62 18.352 25 16.189 25 13.55C25 11.387 23.306 9.7 21.15 9.7Z" fill="#2979FF"/>
</svg>
